<svg xmlns="http://www.w3.org/2000/svg" viewBox="0 175 792 419" enable-background="new 0 175 792 419"><path fill="#fff" d="M523.5 358.9c1.1-1.1 1.1-2.1 2.1-3.2 0-1.1 0-2.1 1.1-2.1l1.1-1.1s1.1 0 1.1-1.1c0 0 0-1.1 1.1-1.1s3.2 2.1 3.2 3.2l-1.1 2.1c-1.1 0-2.1 1.1-3.2 2.1 0 0-1.1 1.1-2.1 1.1-1.1-1.1-1.1-1.1-3.3.1m145.3-128.2c1.1 2.1-2.1 4.4-1.1 8.6v2.1h-1l-2.1 6.5-4.4 5.4h-1.1l-1.1 5.4v1.1h-2.1l-1.1 5.4 1.1 1.1-2.1 2.1v2.1c-1.1 1.1-3.2 2.1-2.1 3.2h-2.1l1.1 1.1-2.1 1.1c-2.1-1.1-18.3 1.1-21.5 3.2l-8.6 1.1-1.1 1.1-2.1-1.1v1.1h-8.8l-1.1 1.1h-2.1l-2.1 2.1h-2.1l-3.2 3.2 1.1 2.1 13 3.2v1.1l1.1-1.1v2.1l5.4-1.1v1.1l8.6 2.1 3.2-1.1c2.1 1.1 6.5-1.1 7.5-2.1l1.1 1.1-1.1 6.5h1.1v1.1h-1.1l-1.1 4.4-2.1 1.1 1.1 1.1-2.1 3.2-1.1 4.4-1.5 1.1v2.1l-1.1 1.1 1.1 1.1-2.1 4.4-2.1 2.1 2.1 1.1h-2.1l-1.1 3.2c2.1 2.1 1.1 2.1 0 5.4h-1.1l2.1 1.1-2.1 2.1 1.1 1.1h-2.1l1.1 1.1-1.1 1.1h-.6l1.1 1.1h-1.1l-3.2 7.5-1.1 2.1-2.1 5.4h-1.7l-1.1 4.4h-1.1l1.1 1.1h-1.1l-2.1 5.4-2.1 2.1h-1.2v1.1l-1.1 1.1h-1.2v1.1h-2.1v1.1l-2.1-1.1v-1.7l1.1-1.1-2.1-2.1-1.1-4.4h1.1l-1.1-1.1 1.1-1.1h-1.1l-1.1-2.1 1.1-4.4-1.1-1.1v-2.1l1.1-5.4-1.1-1.1 1.1-3.2c-2.1-2.1 0-2.1 0-4.4h2.1l-1.1-1.1 1.1-1.1h-1.1c1.1-3.2-1.1-5.4-1.1-8.6-2.1-1.1-8.6 3.2-10.8 5.4l-1.1 4.4h-1.1l1.1 1.1-1.1 1.1h-3.1l-2.1-4.4v-.8l-2.1-1.1 2.1-7.5-5.4-1.1-1.1 1.1-1.1-1.1-1.1 1.1-1.1-1.1v2.1l-1.1-1.1v2.1l-4.4 3.2c1.1 2.1 1.1 2.1-1.1 3.2v2.1h1.1l-1.1 5.4h-1l1.1 1.1h-2.1c1.1 2.1-1.1 5.4-3.2 7.5l-2.1 9.6h-1.1v3.2h-1.1l-1.1 5.4h-2.1v2.1l-2.1 3.2h-1.1l-1.1 3.2-1.1 2.1h-1.1l-1.1 3.2h-1.1c0 2.1 0 2.1-3.2 3.2v1.1l-6.5-7.5 1.1-1.1-2.1-3.2v-2.1l-1.1-1.1 1.1-1.1-1.1-1.1 1.1-3.2-2.1-1.1 2.1-1.1v-.7l2.1-1.1v-1.1l4.4-1.1-1.1-1.1h2.1l1.1-2.1v-1.1h2.1l2.1-5.4 1.1-2.1h-1.1l1.1-4.4v-3l-2.1-2.1v-1.1l-3.2-2.1-1.1 1.1-3.2-1.1v1.1c-4.4 0-4.4 0-5.4 2.1-2.1-1.1-7.5 4.4-10.8 5.4l-1.1 3.2h-1.1v2.1l-2.1 2.1-2.1 3.2-1.1-1.1-2.1 1.1 1.1-2.1c-2.1 0-4.4-2.1-3.2-3.2l-1.1-1.1-3.2-1.1-1.1 1.1-5.4 2.1v1.1h-.4l-1.1 3.2 1.1 3.2h-1.1l1.1 1.1 1.1 1.1 1.1 1.1-2.1 1.1 1.1 1.1-2.1 4.4c-1.1 1.1-4.4 11.9-4.4 13h-2.1l2.1 1.1v1.1l-2.1 2.1v1.1l-2.1 1.1 1.1 1.1-3.2 2.1c-2.1-3.2-1.1-4.4-1.1-8.6l-4.4-3.2 1.1-2.1-1.1-1.1 1.1-1.1 2.1 1.1v-3.2h-3.2l1.1-1.1-1.1-1.1 2.1-1.1-1.1-4.4h1.1l1.1-3.2-2.1 1.1 2.1-1.1h1.1v-1.1l2.1-1.1-1.1-1.1c2.1-2.1 3.2-5.4 1.1-7.5 1.1-2.1 2.1-7.5 1.1-9.6 3.2-1.1 3.2-2.1 4.4-4.4l-1.1-1.1-1.1-3.2 1.1-8.6h-1.1 2.1l-1.1-1.1c1.1-2.1 1.1-5.4 0-7.5l1.1-4.4-1.1-1.1v-12.9c-3.2-3.2-2.1-4.4-1.1-7.5l1.1-2.1v-2.1l-1.1-1.1-1.1-7.5c-11.9-1.1-14 10.8-17.2 17.2-2.1 4.4-6.5 19.4-7.5 23.7 0 3.2-1.1 8.6-2.1 11.9-1.1 4.4-1.1 7.5-1.1 10.8 0 2.1-2.1 8.6-1.1 10.8 2.1 5.4 0 8.6 0 11.9v10.8c0 1.1 1.1 14 1.1 14 0 2.1-5.4 8.6-6.5 10.8s-1.1 4.4-3.2 5.4c-4.4 2.1-2.1 0-4.4 4.4-3.2 5.4-6.5 2.1-9.6 0 0 0-6.5-8.6-7.5-9.6-2.1-3.2 1.1-4.4 0-6.5-1.1-2.1-3.2 0-3.2-3.2 0-4.4 5.4-7.5 6.5-12.9 1.1-4.4 3.2-7.5 5.4-11.9 2.1-4.4-3.2-4.4 2.1-10.8 2.1-3.2 0-3.2 1.1-6.5 1.1-2.1 2.1-3.2 3.2-5.4 1.1-2.1 4.4-10.8 4.4-10.8 1.1-1.1 3.2 1.1 3.2-2.1 0-2.1-1.1-4.4-1.1-7.5 0-3.2 1.1-7.5 1.1-9.6-1.1-8.6 5.4-17.2-3.2-24.8-6.5-5.4-19.4 1.1-24.8 4.4-2.1 1.1-15 19.4-15 21.5 0 1.1-2.1 9.6-2.1 9.6-1.1 2.1-1.1 7.5-2.1 11.9-1.1 6.5-3.2 7.5-1.1 14 2.1 8.6-4.4 4.4 0 11.9-3.2 1.1-8.6-7.5-13-8.6-1.1 0-11.9 0-14-2.1-2.1-1.1-1.1-4.4-1.1-7.5 0-1.1 2.1-2.1 3.2-4.4 2.1-4.4 5.4-4.4 2.1-11.9-1.1-1.1 2.1-10.8 3.2-13 2.1-7.5 3.2-7.5 8.6-14 2.1-3.2 7.5-7.5 5.4-11.9-1.1-2.1-9.6-7.5-11.9-8.6-4.4-2.1-11.9-4.4-15 0-2.1 2.1-2.1 3.2-4.4 6.5l-4.4 5.4c-2.1 3.2-3.2 7.5-6.5 9.6-3.2 2.1-5.4 5.4-7.5 9.6-2.1 4.4-4.4 5.4-6.5 10.8-3.2 8.6-7.5 5.4-8.6 9.6-1.1 6.5-1.1 3.2-3.2 6.5 0 1.1 1.1 4.4-1.1 6.5-2.1 2.1-5.4-1.1-5.4 4.4 0 2.1 1.1 5.4 0 6.5-1.1 3.2-4.4 1.1-3.2 5.4 0 2.1-1.1 4.4-3.2 5.4 0 0-9.6 2.1-11.9 3.2-5.4 1.1-27 10.8-29 9.6-11.9-2.1-17.2-5.4-28 2.1-3.2 2.1-22.6 3.2-27.9 5.4-4.4 1.1-8.6 3.2-12.9 4.4-2.1 0-3.2 2.1-6.5 3.2-2.1 0-4.4 0-6.5 1.1-8.6 3.2-18.3 7.5-27 9.6-9.6 2.1-18.3 6.5-27.9 9.6-2.1 1.1-10.8 4.4-11.9 2.1-2.1-3.2-6.5-11.9-10.8-8.6v2.1l1.1 2.1 2.1 1.1 2.1 3.2v2.1h1.1v1.1l1.1 1.1c-1.1 1.1-3.2 3.2-4.4 3.2-2.1 1.1-1.1-1.1-3.2 1.1h-3.3v1.1l-10.8-3.1v-1.1c-2.1-1.1-8.6-1.1-10.8 0h-2.1c-2.1 4.4-2.1 5.4-1.1 8.6h1.1l-1.1 1.1 1.1 1.1-2.1 2.1-9.8 1.1-1.1 1.1-2.1-1.1v1.1l-8.6 4.4-1.2 2.1c-2.1 1.1-11.9 5.4-13 7.5l-3.2 1.1v1.1l-4.4 1.1 1.1 2.1-2.1 1.1-1.1 2.1h-1.1l-1.1 4.4-2.1 1.2c0 2.1-4.4 6.5-4.4 9.6h-1.1l-1.1 3.2 1.1 1.1v1.1l14 4.4v1.1l1.1-1.1 3.2 2.1v-1.1l6.5 3.2 1.1-1.1 5.4 3.2 2.1 1.1v-1.1l11.9 1.1 6.5-1.1h4.4l3.2 1.1 7.5-1.1 1.1-1.1c2.1 2.1 10.8 1.1 12.9 2.1l1.1-1.1 1.1 1.1 7.5-1.1v-1.1h1.1l-2.1-1.1 2.1-1.1-3.2-6.5-3.2-5.5 1.1-3.2-2.1-3.2v-1.1c-1.1-1.1-2.1-5.4-1.1-6.5l-1.1-1.1 1.1-2.1-2.1-7.5h1.1-1.2l-1.1-2.1-1.1-2.1 1.1-1.1-2.1-2.1c1.1-2.1-1.1-6.5 4.4-6.5l1.1-1.1h1.1l1.1-2.1h5.300000000000001l3.2 7.5v2.1c4.4 2.1 3.2 11.9 7.5 14l1.1 4.4 2.1 6.5h1.1l1.1 4.4 2.1 1.1-1.1 2.1c4.4 2.1 1.1 3.2 5.4 6.5l-1.1 1.1c1.1 1.1 6.5 18.3 7.5 20.5l5.4 8.6c2.1 3.2 2.1 5.4 5.4 8.6l-1.1 1.1 2.1 2.1v4.4l1.1 3.2h2.1l1.1 2.1c4.4 1.1 5.4 4.4 10.8 2.1v-2.1h2.1c0-4.4 3.2-6.5 6.5-9.6 5.4-6.5 3.2-3.2 9.6-6.5v-2.1h-2.1v-1.3c-4.4-1.1-8.6 4.4-11.9 4.4v1.1l-3.3 1v1.1c-3.2 1.1-2.1 2.1-6.5 3.2-3.2 1.1-2.1-2.1-4.4-3.2v-1.1h-1.1l-4.4-9.6h-2.1v-3.2l-2.1-1.1-4.4-9.6-2.1-1.1c1.1-6.5-4.4-9.6-3.2-14l-1.1-1.1v-2.1l-1.1-1.1v-2.1h-1.1c0-2.1-7.5-14-7.5-18.3l-1.1-1.1v-1.1l-3.2-4.4 1.1-1.1-4.4-8.6 1.1-1.1-2.1-1.1-2.1-6.5v-2.1c3.2-2.1 9.6-2.1 11.9-5.4h4.4l3.2-1.1v2.1h-1.1c-1.1 3.2-2.1 1.1-3.2 4.4-1.1 3.2 0 4.4 0 5.4h-2.1c-3.2 7.5 4.4 4.4 8.6 7.5l15 6.5 1.1 2.1 1.1-1.1c3.2 3.2 8.6 3.2 10.8 4.4 3.2 2.1 5.4 1.1 7.5 3.2 3.2 3.2 16.2 2.1 21.5 2.1 0 0 22.6-3.2 23.7-3.2 2.1-1.1 20.5-4.4 20.5-4.4 0-1.1 8.6-5.4 8.6-5.4 6.5-2.1 3.2 2.1 6.5-5.4 3.2-9.6 2.1-2.1 0-9.6-1.1-3.2 0-6.5-2.1-8.6 1.1-3.2 2.1-7.5 1.1-9.6 1.1-3.2 1.1-7.5 2.1-11.9 2.1-7.5 3.2-4.4 9.6-7.5 5.4-2.1 20.4-6.5 23.7-8.6l1.1 2.1-3.2 10.8-4.4 6.5h2.1-2.4l1.1 1.1-2.1 3.2h-1.1l-1.1 3.2h3.2-2.1v4.4c-2.1 1.1-3.2 2.1-2.1 3.2l-1.1 1.1-1.1 6.5h-2.1l-1.1 3.2 1.1 1.1-2.1 2.1-1.1 2.1h2.1-2.1l-1.1 2.1 1.1 1.1c-3.2 3.2-1.1 7.5-4.4 8.6l1.1 1.1h-2.1v2.1l-3.2 3.2-1.1-1.1-2.1 2.1-1.1-1.1-1.1 2.1 2.1 2.1c7.5 0 2.1 4.4 10.8 3.2 3.2 0 9.6 0 13-1.1 5.4-2.1 9.6-3.2 10.8-8.6 1.1-4.4-1.1-9.6 2.1-9.6 5.4 0-1.1-4.4 4.4-8.6 4.4-4.4-4.4 1.1-3.2-6.5 1.1-4.4-1.1-2.1 0-5.4 0-4.4 2.1 1.1 3.2 1.1 1.1 1.1 5.4 1.1 4.4-2.1 0-1.1-1.1-4.4-1.1-5.4 1.1-4.4 2.1-8.6 3.2-12.9 0-1.1 2.1-3.2 2.1-5.4-1.1-2.1-3.2-3.2-2.1-5.4 1.1-4.4-1.1-3.2-1.1-5.4 0-1.1 3.2-2.1 5.4-2.1 2.1 1.1 3.2 3.2 4.4-1.1 0-1.1 2.1-5.4 1.1-5.4l-3.2-2.1c1.1-2.1 2.1-3.2 5.4-3.2l7.5-2.1c2.1 0 3.2 2.1 5.4 0 6.5-3.2 1.1 2.1 4.4 5.4 2.1 2.1-1.1 6.5 0 9.6 0 2.1 0 9.6 1.1 10.8 3.2 3.2 0 4.4 0 10.8 0 0 3.2 10.8 3.2 11.9 2.1 5.4 0 4.4 4.4 8.6 4.4 6.5-1.1 4.4 4.4 9.6 2.1 2.1 5.4 6.5 7.5 9.6 3.2 3.2 5.4 8.6 9.6 7.5 2.1-1.1 9.6-3.2 10.8-3.2 1.1-1.1 20.4-5.4 14-13-7.5-8.6-2.1 3.2-7.5-4.4-1.1-2.1-7.5 0-9.6 0-8.6 0-5.4-3.2-8.6-7.5-1.1-1.1-1.1-4.4-1.1-6.5 0-3.2 1.1-1.1 2.1-2.1 4.4-2.1-2.1-7.5-2.1-8.6-1.1-4.4 0-6.5 1.1-10.8 1.1 0 8.6 5.4 10.8 6.5 4.4 1.1 8.6 1.1 12.9 0l4.4 5.4 2.1 1.1 6.5 10.8 1.1-1.1c1.1 3.2 6.5 6.5 9.6 7.5l1.1 2.1c2.1 0 7.5 2.1 8.6 2.1 2.1-1.1 6.5-1.1 8.6 0l2.1-2.1 2.1 1.1 7.5-2.1 11.9-12.9c0-2.1 2.1-5.4 4.4-6.5l1.1 1.1c1.1 6.5 9.6 5.4 14 4.4 2.1 0 4.4-1.1 6.5-2.1 4.4-3.2 2.1 2.1 5.4-4.4 3.2-2.1 3.2-4.4 4.4-8.6l1.1-1.1 1.1-4.4-1.1-1.1 1.1-2.1-1.1-2.1c1.1-1.1 2.1-5.4 4.4-7.5 1.1-2.1 0-2.1-1.1-4.4 0-1.1 1.1-4.4 1.1-5.4 6.5-1.1 5.4 4.4 7.5 8.6 0 1.1 1.1 4.4 1.1 5.4 0 3.2 2.1 1.1 3.2 4.4 3.2 10.8 9.6 14 20.4 13 10.8-1.1 15-10.8 22.6-17.2 0 0 3.2-10.8 4.4-11.9 1.1-4.4 3.2-6.5 4.4-10.8 0-1.1 0-14 5.4-10.8 5.4 3.2 5.4-4.4 6.5 7.5 1.1 10.8-2.1 15 6.5 24.8 5.4 5.4 20.4 2.1 25.8-3.2 4.4-4.4 4.4-7.5 7.5-12.9 1.1-1.1 2.1-4.4 2.1-4.4 5.4-6.5 1.1 0 2.1-5.4 3.2 0 7.5 8.6 11.9 10.8 5.4 3.2 11.9 4.4 17.2 5.4 4.4 0 14-3.2 18.3-3.2 3.2 0 9.6-5.4 13-6.5 3.2-1.1 6.5-2.1 8.6-4.4 4.4-3.2 5.4-2.1 8.6-4.4 4.4-2.1 9.6-7.5 15-9.6 2.1-1.1 4.4-3.2 7.5-4.4 3.2-2.1 4.4-2.1 8.6-4.4 7.5-4.4 8.6-4.4 14-10.8l-1.1-2.1c-2.1 0-22.6 8.6-24.8 9.6-2.1 1.1-10.8 5.4-13 6.5-7.5 2.1-2.1 5.4-11.9 4.4-1.1 1.1-4.4 4.4-5.4 4.4-7.5 2.1-5.4 0-7.5 0-2.1 0-1.1 2.1-2.1 3.2-1.1 1.1-2.1 1.1-3.2 2.1-2.1 1.1-5.4 2.1-8.6 3.2-4.4 1.1-10.8 4.4-15 3.2-1.1-1.1-1.1-2.1-2.1-2.1s-2.1 1.1-4.4 0c-1.1-1.1-4.4-6.5-4.4-7.5-1.1-3.2-2.1-9.6-1.1-12.9 0-2.1 1.1-7.5 2.1-8.6 1.1-4.4-1.1-3.2 0-6.5 2.1-5.4 4.4-9.6 5.4-15 0-2.1 4.4-10.8 5.4-11.9 4.4-3.2 2.1-9.6 7.5-11.9 4.4-1.1 3.2-1.1 8.6-2.1 3.2 0 4.4-2.1 7.5-3.2 1.1 0 6.5-1.1 7.5-1.1 4.4 0 3.2-1.1 7.5-2.1 2.1-1.1 15-2.1 15-2.1 4.4-2.1 23.7-3.2 30.1-4.4 4.4 0 10.8-1.1 14-1.1 4.4 1.1 9.6 0 9.6-5.4l-7.5-3.2-1.1 1.1-6.5-.6v1.1h-7.5c-3.2-1.1-5.4-2.1-8.6-1.1-2.1 1.1-6.5 1.1-7.5-1.1v1.1h-6.5l-1.1 1.1-4.4-1.1-1.1 1.1-2.1-1.1c-2.1 1.1-2.1 1.1-5.4 0l-4.4 1.1h-2.1l-1.1 1.1-1.1-2.1-1.1 1.1-10.8 1.1-2.1 1.1h-2.1l-1.1 1.1-1.1-1.1v1.1-1.1l-6.5 1.1h-5.2l2.1-7.5h1.1l2.1-6.5h1.1l-1.1-1.1 3.2-7.5 1.1-2.1-1.1-1.1 1.1-1.1-1.1-1.1 1.1-2.1h1.1l1.1-1.1h-1.1l1.1-4.4-7.8-2.4zm-235.7 69l1.1 1.1 3.2-1.1-1.1 2.1 3.2 2.1-1.1 1.1 2.1 1.1-.9 2.1 1.1 6.5h-1.1v2.1h3.2l-3.2 2.1c1.1 1.1-2.1 13-3.2 14v2.1l-2.1-1.1v2.1l-1.1 1.1v2.1l-2.1 2.1 1.1 2.1-1.1 1.1 1.1 1.1c-2.1 1.1-3.2 4.4-2.1 5.4h-2.1l1.1 1.1-2.1 2.1-3.2 3.2v2.1h-1.1l1.1 1.1h-2.1v1.1l-1.1 2.1h-3.2v-6.3l-1.1-1.1 1.1-2.1-1.1-2.1 1.1-3.2-1.1-3.2-1.1-1.1 2.1-1.1-2.1-3.2 1.1-5.4-1.1-4.4h-1.1l1.1-1.1-1.1-1.1 2.9-11.4 1.1 1.1 1.1-1.1 1.1-3.2v-2.3h1.1v-1.1l3.2-3.2v-1.4l1.1-2.1h1.1l1.1-2.1 3.2-1.1 2-.8zm45.1 0h2.1v2.1l2.1 3.2-2.1 1.1 2.1 2.1c-1.1 2.1 1.1 6.5-2.1 9.6h2.1l-2.1 8.6 1.1 1.1h-2.1l1.1 1.1-2.1 1.1v2.1l1.1 1.1h-1.1l1.1 1.1-2.1 2.1 1.1 1.1-2.1 1.1h1.1v3.2l-2.1-1.1-1.1 2.1h2.1l-2.1 4.4v2.1l1.1 1.1h-2.4l-1.1 2.1-1.1-2.1v-6.5l-1.1-1.1 2.1-8.6-1.1-1.1 2.1-10.8h-1l1.1-1.1 1.1-10.8v-2l2.1-2.1h-2.1 2.1l1.1-4.4h1.1v-1.9zm-130.2 35.5c2.1-3.2 0-5.4 3.2-5.4v1.1h-1.2l1.1 1.1-1.1 4.4 1.1 1.1-3.2 12.9h1.1l-2.1 6.5-7.5 2.1-3.2 2.1h-4.4l1.1-5.4 4.4 1.1h1.1l-1.1-5.4 2.1-4.4 1.1 1.1v-1.1h2.1l-1.1-1.1 1.1-1.1h-2.1l-1.1-1.1h2.1l-1.1-1.1 2.1-2.1 3.2-2.1-1.1-2.1 3.4-1.1-1.1-1.1 1.1 1.1zm20.5 45.2l1.1-1.1-1.1-1.1c1.1-2.1 1.1-2.1 0-3.2v-3.2h1.1v-1.1l1.1-1.1h3.2l2.1 2.1 1.1-1.1 17.2 4.4 1.1-1.1h2.1l2.1 2.1v-.9h2.1v3.2l-1.1-1.1h1.1l1.1 6.5h-1.2l1.1 1.1h-1.1v1.1l-2 2.2-1.1 3.2c-2.1 1.1-5.4 2.1-7.5 2.1l-6.5 1.1-2.1-1.1v1.1h-3.2v2.1l-4.4-1.1-1.1 1.1c-4.4-4.4-3.2-7.5-2.1-13h-1.1v-2l-2-1.2zm-123.8 26.9c2.1 1.1 2.1 2.1 1.1 4.4l1.1 1.1c-1.1 3.2-1.1 5.4-1.1 7.5 1.1 6.5 0 3.2-1.1 8.6l-2.1 1.1c-2.1 0-6.5 1.1-6.5 3.2l-2.1 1.1c-2.1-1.1-11.9 4.4-14 6.5l-1.1-1.1c-1.1 2.1-18.3 6.5-19.4 5.4l-8.6-1.1s-7.5-3.2-9.6-3.2l-5.4-5.4c1.1-3.2 7.5-6.5 9.6-6.5l4.4-2.1 14-7.5h2.1c1.1-2.1 14-6.5 15-5.4l2.1-1.1v-1.1h2.1l1.1-1.1 8.6-3.2 1.1 1.1c2.1-2.1 7.5-4.4 9.6-3.2l-.9 2zm67.8 9.7v3.2h-1.1v-1.2l-2.1-1.1 2.1-2.1v-2.1l2.1-1.1c-2.1 2.3-2.1 3.3-1 4.4zm-226 37.6l2.1 5.4-1.1 3.2 1.1 1.1v1.1l1.1 1.1v2.1l2.1 1.1-1.1 4.4-9.6 1.2-1.1 1.1v-2.1l-1.1 1.1-4.4-1.1-4.4 1.1-1.1-1.1h-4.2v-4.4l3.2-7.5h2.1v-1.1h1.1l1.1-2.1 8.6-4.4v-1.1l3.2-1.1v2.1l1.1-2.1 1.3 2z"/></svg>