<?xml version="1.0" encoding="utf-8"?>
<!-- Generator: Adobe Illustrator 17.1.0, SVG Export Plug-In . SVG Version: 6.00 Build 0)  -->
<!DOCTYPE svg PUBLIC "-//W3C//DTD SVG 1.1//EN" "http://www.w3.org/Graphics/SVG/1.1/DTD/svg11.dtd">
<svg version="1.1" id="Layer_1" xmlns="http://www.w3.org/2000/svg" xmlns:xlink="http://www.w3.org/1999/xlink" x="0px" y="0px"
	 viewBox="0 0 1224 792" enable-background="new 0 0 1224 792" xml:space="preserve">
<path fill="#FFFFFF" d="M812.5,336.7c1.7-1.7,1.7-3.5,3.5-5.2c0-1.7,0-3.5,1.7-3.5l1.7-1.7c0,0,1.7,0,1.7-1.7c0,0,0-1.7,1.7-1.7
	c1.7,0,5.2,3.5,5.2,5.2l-1.7,3.5c-1.7,0-3.5,1.7-5.2,3.5c0,0-1.7,1.7-3.5,1.7C816,335,816,335,812.5,336.7 M1047.9,129.2
	c1.7,3.5-3.5,7-1.7,13.9v3.5h-1.7l-3.5,10.5l-7,8.7h-1.7l-1.7,8.7v1.7h-3.5l-1.7,8.7l1.7,1.7l-3.5,3.5v3.5c-1.7,1.7-5.2,3.5-3.5,5.2
	h-3.5l1.7,1.7l-3.5,1.7c-3.5-1.7-29.6,1.7-34.9,5.2l-13.9,1.7l-1.7,1.7l-3.5-1.7v1.7h-7h-7l-1.7,1.7h-3.5l-3.5,3.5h-3.5l-5.2,5.2
	l1.7,3.5l20.9,5.2v1.7l1.7-1.7v3.5l8.7-1.7v1.7l13.9,3.5l5.2-1.7c3.5,1.7,10.5-1.7,12.2-3.5l1.7,1.7l-1.7,10.5l1.7,0v1.7h-1.7
	l-1.7,7l-3.5,1.7l1.7,1.7l-3.5,5.2l-1.7,7l-1.7,1.7v3.5l-1.7,1.7l1.7,1.7l-3.5,7l-3.5,3.5l3.5,1.7h-3.5l-1.7,5.2
	c3.5,3.5,1.7,3.5,0,8.7h-1.7l3.5,1.7l-3.5,3.5l1.7,1.7h-3.5l1.7,1.7l-1.7,1.7h-1.7l1.7,1.7h-1.7l-5.2,12.2l-1.7,3.5l-3.5,8.7h-1.7
	l-1.7,7h-1.7l1.7,1.7h-1.7l-3.5,8.7l-3.5,3.5H945v1.7l-1.7,1.7h-1.7v1.7h-3.5v1.7l-3.5-1.7v-1.7l1.7-1.7l-3.5-3.5l-1.7-7h1.7
	l-1.7-1.7l1.7-1.7h-1.7l-1.7-3.5l1.7-7l-1.7-1.7v-3.5l1.7-8.7l-1.7-1.7l1.7-5.2c-3.5-3.5,0-3.5,0-7h3.5l-1.7-1.7l1.7-1.7h-1.7
	c1.7-5.2-1.7-8.7-1.7-13.9c-3.5-1.7-13.9,5.2-17.4,8.7l-1.7,7h-1.7l1.7,1.7l-1.7,1.7h-5.2l-3.5-7v-1.7l-3.5-1.7l3.5-12.2l-8.7-1.7
	l-1.7,1.7l-1.7-1.7l-1.7,1.7l-1.7-1.7v3.5l-1.7-1.7v3.5l-7,5.2c1.7,3.5,1.7,3.5-1.7,5.2v3.5h1.7l-1.7,8.7h-1.7l1.7,1.7h-3.5
	c1.7,3.5-1.7,8.7-5.2,12.2l-3.5,15.7h-1.7v5.2h-1.7l-1.7,8.7h-3.5v3.5l-3.5,5.2h-1.7l-1.7,5.2l-1.7,3.5h-1.7l-1.7,5.2h-1.7
	c0,3.5,0,3.5-5.2,5.2v1.7l-10.5-12.2l1.7-1.7l-3.5-5.2v-3.5l-1.7-1.7l1.7-1.7l-1.7-1.7l1.7-5.2l-3.5-1.7l3.5-1.7v-1.7l3.5-1.7v-1.7
	l7-1.7l-1.7-1.7h3.5l1.7-3.5v-1.7h3.5l3.5-8.7l1.7-3.5h-1.7l1.7-7v-5.2l-3.5-3.5v-1.7l-5.2-3.5l-1.7,1.7l-5.2-1.7v1.7
	c-7,0-7,0-8.7,3.5c-3.5-1.7-12.2,7-17.4,8.7l-1.7,5.2h-1.7v3.5l-3.5,3.5l-3.5,5.2l-1.7-1.7l-3.5,1.7l1.7-3.5c-3.5,0-7-3.5-5.2-5.2
	l-1.7-1.7l-5.2-1.7l-1.7,1.7l-8.7,3.5v1.7h-1.7l-1.7,5.2l1.7,5.2h-1.7l1.7,1.7l1.7,1.7l1.7,1.7l-3.5,1.7l1.7,1.7l-3.5,7
	c-1.7,1.7-7,19.2-7,20.9h-3.5l3.5,1.7v1.7l-3.5,3.5v1.7l-3.5,1.7l1.7,1.7l-5.2,3.5c-3.5-5.2-1.7-7-1.7-13.9l-7-5.2l1.7-3.5l-1.7-1.7
	l1.7-1.7l3.5,1.7v-5.2h-5.2l1.7-1.7l-1.7-1.7l3.5-1.7l-1.7-7h1.7l1.7-5.2l-3.5,1.7l3.5-1.7h1.7v-1.7l3.5-1.7l-1.7-1.7
	c3.5-3.5,5.2-8.7,1.7-12.2c1.7-3.5,3.5-12.2,1.7-15.7c5.2-1.7,5.2-3.5,7-7l-1.7-1.7l-1.7-5.2l1.7-13.9h-1.7h3.5l-1.7-1.7
	c1.7-3.5,1.7-8.7,0-12.2l1.7-7l-1.7-1.7v-20.9c-5.2-5.2-3.5-7-1.7-12.2l1.7-3.5v-3.5l-1.7-1.7l-1.7-12.2
	c-19.2-1.7-22.7,17.4-27.9,27.9c-3.5,7-10.5,31.4-12.2,38.4c0,5.2-1.7,13.9-3.5,19.2c-1.7,7-1.7,12.2-1.7,17.4
	c0,3.5-3.5,13.9-1.7,17.4c3.5,8.7,0,13.9,0,19.2c0,5.2,0,12.2,0,17.4c0,1.7,1.7,22.7,1.7,22.7c0,3.5-8.7,13.9-10.5,17.4
	c-1.7,3.5-1.7,7-5.2,8.7c-7,3.5-3.5,0-7,7c-5.2,8.7-10.5,3.5-15.7,0c0,0-10.5-13.9-12.2-15.7c-3.5-5.2,1.7-7,0-10.5
	c-1.7-3.5-5.2,0-5.2-5.2c0-7,8.7-12.2,10.5-20.9c1.7-7,5.2-12.2,8.7-19.2s-5.2-7,3.5-17.4c3.5-5.2,0-5.2,1.7-10.5
	c1.7-3.5,3.5-5.2,5.2-8.7c1.7-3.5,7-17.4,7-17.4c1.7-1.7,5.2,1.7,5.2-3.5c0-3.5-1.7-7-1.7-12.2s1.7-12.2,1.7-15.7
	c-1.7-13.9,8.7-27.9-5.2-40.1c-10.5-8.7-31.4,1.7-40.1,7c-3.5,1.7-24.4,31.4-24.4,34.9c0,1.7-3.5,15.7-3.5,15.7
	c-1.7,3.5-1.7,12.2-3.5,19.2c-1.7,10.5-5.2,12.2-1.7,22.7c3.5,13.9-7,7,0,19.2c-5.2,1.7-13.9-12.2-20.9-13.9c-1.7,0-19.2,0-22.7-3.5
	c-3.5-1.7-1.7-7-1.7-12.2c0-1.7,3.5-3.5,5.2-7c3.5-7,8.7-7,3.5-19.2c-1.7-1.7,3.5-17.4,5.2-20.9c3.5-12.2,5.2-12.2,13.9-22.7
	c3.5-5.2,12.2-12.2,8.7-19.2c-1.7-3.5-15.7-12.2-19.2-13.9c-7-3.5-19.2-7-24.4,0c-3.5,3.5-3.5,5.2-7,10.5c-1.7,3.5-5.2,5.2-7,8.7
	c-3.5,5.2-5.2,12.2-10.5,15.7c-5.2,3.5-8.7,8.7-12.2,15.7c-3.5,7-7,8.7-10.5,17.4c-5.2,13.9-12.2,8.7-13.9,15.7
	c-1.7,10.5-1.7,5.2-5.2,10.5c0,1.7,1.7,7-1.7,10.5c-3.5,3.5-8.7-1.7-8.7,7c0,3.5,1.7,8.7,0,10.5c-1.7,5.2-7,1.7-5.2,8.7
	c0,3.5-1.7,7-5.2,8.7c0,0-15.7,3.5-19.2,5.2c-8.7,1.7-43.6,17.4-47.1,15.7c-19.2-3.5-27.9-8.7-45.3,3.5c-5.2,3.5-36.6,5.2-45.3,8.7
	c-7,1.7-13.9,5.2-20.9,7c-3.5,0-5.2,3.5-10.5,5.2c-3.5,0-7,0-10.5,1.7c-13.9,5.2-29.6,12.2-43.6,15.7c-15.7,3.5-29.6,10.5-45.3,15.7
	c-3.5,1.7-17.4,7-19.2,3.5c-3.5-5.2-10.5-19.2-17.4-13.9v3.5l1.7,3.5l3.5,1.7l3.5,5.2v3.5h1.7v1.7l1.7,1.7c-1.7,1.7-5.2,5.2-7,5.2
	c-3.5,1.7-1.7-1.7-5.2,1.7h-5.2v1.7l-17.4-5.2v-1.7c-3.5-1.7-13.9-1.7-17.4,0h-3.5c-3.5,7-3.5,8.7-1.7,13.9h1.7l-1.7,1.7l1.7,1.7
	l-3.5,3.5L87.2,464l-1.7,1.7l-3.5-1.7v1.7l-13.9,7l-1.7,3.5c-3.5,1.7-19.2,8.7-20.9,12.2l-5.2,1.7v1.7l-7,1.7l1.7,3.5l-3.5,1.7
	l-1.7,3.5h-1.7l-1.7,7l-3.5,1.7c0,3.5-7,10.5-7,15.7h-1.7l-1.7,5.2l1.7,1.7v1.7l22.7,7v1.7l1.7-1.7l5.2,3.5v-1.7l10.5,5.2l1.7-1.7
	l8.7,5.2l0,0l3.5,1.7v-1.7l19.2,1.7l10.5-1.7l7,0l5.2,1.7l12.2-1.7l0,0l1.7-1.7c3.5,3.5,17.4,1.7,20.9,3.5l1.7-1.7l1.7,1.7l12.2-1.7
	v-1.7h1.7l-3.5-1.7l3.5-1.7l-5.2-10.5l-5.2-8.7l1.7-5.2l-3.5-5.2v-1.7c-1.7-1.7-3.5-8.7-1.7-10.5l-1.7-1.7l1.7-3.5l-3.5-12.2h1.7
	h-1.7l-1.7-3.5l-1.7-3.5l1.7-1.7l-3.5-3.5c1.7-3.5-1.7-10.5,7-10.5l1.7-1.7h1.7l1.7-3.5h3.5h5.2l5.2,12.2v3.5
	c7,3.5,5.2,19.2,12.2,22.7l1.7,7l3.5,10.5h1.7l1.7,7l3.5,1.7l-1.7,3.5c7,3.5,1.7,5.2,8.7,10.5l-1.7,1.7c1.7,1.7,10.5,29.6,12.2,33.1
	l8.7,13.9c3.5,5.2,3.5,8.7,8.7,13.9l-1.7,1.7l3.5,3.5v7l1.7,5.2h3.5l1.7,3.5c7,1.7,8.7,7,17.4,3.5v-3.5h3.5c0-7,5.2-10.5,10.5-15.7
	c8.7-10.5,5.2-5.2,15.7-10.5V593h-3.5v-1.7c-7-1.7-13.9,7-19.2,7v1.7l-5.2,1.7v1.7c-5.2,1.7-3.5,3.5-10.5,5.2
	c-5.2,1.7-3.5-3.5-7-5.2v-1.7h-1.7l-7-15.7h-3.5v-5.2l-3.5-1.7l-7-15.7l-3.5-1.7c1.7-10.5-7-15.7-5.2-22.7l-1.7-1.7v-3.5l-1.7-1.7
	v-3.5h-1.7c0-3.5-12.2-22.7-12.2-29.6l-1.7-1.7v-1.7l-5.2-7l1.7-1.7l-7-13.9l1.7-1.7l-3.5-1.7l-3.5-10.5v-3.5
	c5.2-3.5,15.7-3.5,19.2-8.7h7l5.2-1.7v3.5h-1.7c-1.7,5.2-3.5,1.7-5.2,7c-1.7,5.2,0,7,0,8.7h-3.5c-5.2,12.2,7,7,13.9,12.2l24.4,10.5
	l1.7,3.5l1.7-1.7c5.2,5.2,13.9,5.2,17.4,7c5.2,3.5,8.7,1.7,12.2,5.2c5.2,5.2,26.2,3.5,34.9,3.5c0,0,36.6-5.2,38.4-5.2
	c3.5-1.7,33.1-7,33.1-7c0-1.7,13.9-8.7,13.9-8.7c10.5-3.5,5.2,3.5,10.5-8.7c5.2-15.7,3.5-3.5,0-15.7c-1.7-5.2,0-10.5-3.5-13.9
	c1.7-5.2,3.5-12.2,1.7-15.7c1.7-5.2,1.7-12.2,3.5-19.2c3.5-12.2,5.2-7,15.7-12.2c8.7-3.5,33.1-10.5,38.4-13.9l1.7,3.5l-5.2,17.4
	l-7,10.5h3.5h-3.5l1.7,1.7l-3.5,5.2h-1.7l-1.7,5.2h3.5h-3.5h1.7v7c-3.5,1.7-5.2,3.5-3.5,5.2l-1.7,1.7l-1.7,10.5h-3.5l-1.7,5.2
	l1.7,1.7l-3.5,3.5l-1.7,3.5h3.5h-3.5l-1.7,3.5l1.7,1.7c-5.2,5.2-1.7,12.2-7,13.9l1.7,1.7h-3.5v3.5l-5.2,5.2l-1.7-1.7l-3.5,3.5
	l-1.7-1.7l-1.7,3.5l3.5,3.5c12.2,0,3.5,7,17.4,5.2c5.2,0,15.7,0,20.9-1.7c8.7-3.5,15.7-5.2,17.4-13.9c1.7-7-1.7-15.7,3.5-15.7
	c8.7,0-1.7-7,7-13.9c7-7-7,1.7-5.2-10.5c1.7-7-1.7-3.5,0-8.7c0-7,3.5,1.7,5.2,1.7c1.7,1.7,8.7,1.7,7-3.5c0-1.7-1.7-7-1.7-8.7
	c1.7-7,3.5-13.9,5.2-20.9c0-1.7,3.5-5.2,3.5-8.7c-1.7-3.5-5.2-5.2-3.5-8.7c1.7-7-1.7-5.2-1.7-8.7c0-1.7,5.2-3.5,8.7-3.5
	c3.5,1.7,5.2,5.2,7-1.7c0-1.7,3.5-8.7,1.7-8.7c-1.7-3.5-7,0-5.2-3.5c1.7-3.5,3.5-5.2,8.7-5.2c3.5,0,8.7-3.5,12.2-3.5
	c3.5,0,5.2,3.5,8.7,0c10.5-5.2,1.7,3.5,7,8.7c3.5,3.5-1.7,10.5,0,15.7c0,3.5,0,15.7,1.7,17.4c5.2,5.2,0,7,0,17.4
	c0,0,5.2,17.4,5.2,19.2c3.5,8.7,0,7,7,13.9c7,10.5-1.7,7,7,15.7c3.5,3.5,8.7,10.5,12.2,15.7c5.2,5.2,8.7,13.9,15.7,12.2
	c3.5-1.7,15.7-5.2,17.4-5.2c1.7-1.7,33.1-8.7,22.7-20.9c-12.2-13.9-3.5,5.2-12.2-7c-1.7-3.5-12.2,0-15.7,0
	c-13.9,0-8.7-5.2-13.9-12.2c-1.7-1.7-1.7-7-1.7-10.5c0-5.2,1.7-1.7,3.5-3.5c7-3.5-3.5-12.2-3.5-13.9c-1.7-7,0-10.5,1.7-17.4
	c1.7,0,13.9,8.7,17.4,10.5c7,1.7,13.9,1.7,20.9,0l7,8.7l3.5,1.7l10.5,17.4l1.7-1.7c1.7,5.2,10.5,10.5,15.7,12.2l1.7,3.5
	c3.5,0,12.2,3.5,13.9,3.5c3.5-1.7,10.5-1.7,13.9,0l3.5-3.5l3.5,1.7l12.2-3.5l19.2-20.9c0-3.5,3.5-8.7,7-10.5l1.7,1.7
	c1.7,10.5,15.7,8.7,22.7,7c3.5,0,7-1.7,10.5-3.5c7-5.2,3.5,3.5,8.7-7c5.2-3.5,5.2-7,7-13.9l1.7-1.7l1.7-7l-1.7-1.7l1.7-3.5l-1.7-3.5
	c1.7-1.7,3.5-8.7,7-12.2c1.7-3.5,0-3.5-1.7-7c0-1.7,1.7-7,1.7-8.7c10.5-1.7,8.7,7,12.2,13.9c0,1.7,1.7,7,1.7,8.7
	c0,5.2,3.5,1.7,5.2,7c5.2,17.4,15.7,22.7,33.1,20.9c17.4-1.7,24.4-17.4,36.6-27.9c0,0,5.2-17.4,7-19.2c1.7-7,5.2-10.5,7-17.4
	c0-1.7,0-22.7,8.7-17.4c8.7,5.2,8.7-7,10.5,12.2c1.7,17.4-3.5,24.4,10.5,40.1c8.7,8.7,33.1,3.5,41.8-5.2c7-7,7-12.2,12.2-20.9
	c1.7-1.7,3.5-7,3.5-7c8.7-10.5,1.7,0,3.5-8.7c5.2,0,12.2,13.9,19.2,17.4c8.7,5.2,19.2,7,27.9,8.7c7,0,22.7-5.2,29.6-5.2
	c5.2,0,15.7-8.7,20.9-10.5c5.2-1.7,10.5-3.5,13.9-7c7-5.2,8.7-3.5,13.9-7c7-3.5,15.7-12.2,24.4-15.7c3.5-1.7,7-5.2,12.2-7
	c5.2-3.5,7-3.5,13.9-7c12.2-7,13.9-7,22.7-17.4l-1.7-3.5c-3.5,0-36.6,13.9-40.1,15.7s-17.4,8.7-20.9,10.5c-12.2,3.5-3.5,8.7-19.2,7
	c-1.7,1.7-7,7-8.7,7c-12.2,3.5-8.7,0-12.2,0c-3.5,0-1.7,3.5-3.5,5.2c-1.7,1.7-3.5,1.7-5.2,3.5c-3.5,1.7-8.7,3.5-13.9,5.2
	c-7,1.7-17.4,7-24.4,5.2c-1.7-1.7-1.7-3.5-3.5-3.5c-1.7,0-3.5,1.7-7,0c-1.7-1.7-7-10.5-7-12.2c-1.7-5.2-3.5-15.7-1.7-20.9
	c0-3.5,1.7-12.2,3.5-13.9c1.7-7-1.7-5.2,0-10.5c3.5-8.7,7-15.7,8.7-24.4c0-3.5,7-17.4,8.7-19.2c7-5.2,3.5-15.7,12.2-19.2
	c7-1.7,5.2-1.7,13.9-3.5c5.2,0,7-3.5,12.2-5.2c1.7,0,10.5-1.7,12.2-1.7c7,0,5.2-1.7,12.2-3.5c3.5-1.7,24.4-3.5,24.4-3.5
	c7-3.5,38.4-5.2,48.8-7c7,0,17.4-1.7,22.7-1.7c7,1.7,15.7,0,15.7-8.7l-12.2-5.2l-1.7,1.7l-10.5-1.7v1.7H1163
	c-5.2-1.7-8.7-3.5-13.9-1.7c-3.5,1.7-10.5,1.7-12.2-1.7v1.7h-10.5l-1.7,1.7l-7-1.7l-1.7,1.7l-3.5-1.7c-3.5,1.7-3.5,1.7-8.7,0l-7,1.7
	h-3.5l-1.7,1.7l-1.7-3.5l-1.7,1.7l-17.4,1.7l-3.5,1.7h-3.5l-1.7,1.7l-1.7-1.7v1.7v-1.7l-10.5,1.7l-3.5,0h-5.2l3.5-12.2h1.7l3.5-10.5
	h1.7l-1.7-1.7l5.2-12.2l1.7-3.5l-1.7-1.7l1.7-1.7l-1.7-1.7l1.7-3.5h1.7l1.7-1.7h-1.7l1.7-7L1047.9,129.2z M666.1,240.8l1.7,1.7
	l5.2-1.7l-1.7,3.5l5.2,3.5l-1.7,1.7l3.5,1.7l-1.7,3.5l1.7,10.5h-1.7v3.5h5.2l-5.2,3.5c1.7,1.7-3.5,20.9-5.2,22.7v3.5l-3.5-1.7v3.5
	l-1.7,1.7v3.5l-3.5,3.5l1.7,3.5l-1.7,1.7l1.7,1.7c-3.5,1.7-5.2,7-3.5,8.7h-3.5l1.7,1.7l-3.5,3.5l-5.2,5.2v3.5h-1.7l1.7,1.7h-3.5v1.7
	l-1.7,3.5h-5.2V335l-1.7-1.7l1.7-3.5l-1.7-3.5l1.7-5.2l-1.7-5.2l-1.7-1.7l3.5-1.7l-3.5-5.2l1.7-8.7l-1.7-7h-1.7l1.7-1.7l-1.7-1.7
	l5.2-19.2l1.7,1.7l1.7-1.7l1.7-5.2V260h1.7v-1.7l5.2-5.2v-1.7l1.7-3.5h1.7l1.7-3.5l5.2-1.7L666.1,240.8L666.1,240.8z M739.3,240.8
	h3.5v3.5l3.5,5.2l-3.5,1.7l3.5,3.5c-1.7,3.5,1.7,10.5-3.5,15.7h3.5l-3.5,13.9l1.7,1.7H741l1.7,1.7l-3.5,1.7v3.5l1.7,1.7h-1.7
	l1.7,1.7l-3.5,3.5l1.7,1.7l-3.5,1.7h1.7v5.2l-3.5-1.7l-1.7,3.5h3.5l-3.5,7v3.5l1.7,1.7h-3.5l-1.7,3.5l-1.7-3.5v-10.5l-1.7-1.7
	l3.5-13.9l-1.7-1.7l3.5-17.4h-1.7l1.7-1.7l1.7-17.4h0v-3.5l3.5-3.5h-3.5h3.5l1.7-7h1.7L739.3,240.8z M528.3,298.4
	c3.5-5.2,0-8.7,5.2-8.7v1.7h-1.7l1.7,1.7l-1.7,7l1.7,1.7l-5.2,20.9h1.7l-3.5,10.5l-12.2,3.5l-5.2,3.5h-7l1.7-8.7l7,1.7h1.7l-1.7-8.7
	l3.5-7l1.7,1.7v-1.7h3.5l-1.7-1.7l1.7-1.7l-3.5,0l-1.7-1.7h3.5l-1.7-1.7l3.5-3.5l5.2-3.5l-1.7-3.5L528.3,298.4l-1.7-1.7L528.3,298.4
	z M561.4,371.6l1.7-1.7l-1.7-1.7c1.7-3.5,1.7-3.5,0-5.2v-5.2h1.7v-1.7l1.7-1.7h5.2l3.5,3.5l1.7-1.7l27.9,7l1.7-1.7h3.5l3.5,3.5v-1.7
	h3.5v5.2l-1.7-1.7h1.7l1.7,10.5h-1.7l1.7,1.7h-1.7v1.7l-3.5,3.5l-1.7,5.2c-3.5,1.7-8.7,3.5-12.2,3.5c-5.2,1.7-7,0-10.5,1.7l-3.5-1.7
	v1.7h-5.2v3.5l-7-1.7l-1.7,1.7c-7-7-5.2-12.2-3.5-20.9h-1.7v-3.5L561.4,371.6z M360.9,415.2c3.5,1.7,3.5,3.5,1.7,7l1.7,1.7
	c-1.7,5.2-1.7,8.7-1.7,12.2c1.7,10.5,0,5.2-1.7,13.9l-3.5,1.7c-3.5,0-10.5,1.7-10.5,5.2l-3.5,1.7c-3.5-1.7-19.2,7-22.7,10.5
	l-1.7-1.7c-1.7,3.5-29.6,10.5-31.4,8.7c-7-1.7-8.7,0-13.9-1.7s-12.2-5.2-15.7-5.2l-8.7-8.7c1.7-5.2,12.2-10.5,15.7-10.5l7-3.5
	l22.7-12.2h3.5c1.7-3.5,22.7-10.5,24.4-8.7l3.5-1.7v-1.7h3.5l1.7-1.7l13.9-5.2l1.7,1.7c3.5-3.5,12.2-7,15.7-5.2L360.9,415.2z
	 M470.8,430.9v5.2H469v-1.7l-3.5-1.7l3.5-3.5v-3.5l3.5-1.7C469,427.4,469,429.1,470.8,430.9z M104.6,491.9L104.6,491.9l3.5,8.7
	l-1.7,5.2l1.7,1.7v1.7l1.7,1.7v3.5l3.5,1.7l-1.7,7L95.9,525l-1.7,1.7v-3.5l-1.7,1.7l-7-1.7l-7,1.7l-1.7-1.7H75h-5.2v-7l5.2-12.2h3.5
	v-1.7h1.7l1.7-3.5l13.9-7v-1.7l5.2-1.7v3.5l1.7-3.5L104.6,491.9z"/>
</svg>
