<?xml version="1.0" encoding="utf-8"?>
<!-- Generator: Adobe Illustrator 17.1.0, SVG Export Plug-In . SVG Version: 6.00 Build 0)  -->
<!DOCTYPE svg PUBLIC "-//W3C//DTD SVG 1.1//EN" "http://www.w3.org/Graphics/SVG/1.1/DTD/svg11.dtd">
<svg version="1.1" id="Layer_1" xmlns="http://www.w3.org/2000/svg" xmlns:xlink="http://www.w3.org/1999/xlink" x="0px" y="0px"
	 viewBox="0 175 792 419" enable-background="new 0 175 792 419" xml:space="preserve">
<path fill="#FFFFFF" d="M523.5,358.9c1.1-1.1,1.1-2.1,2.1-3.2c0-1.1,0-2.1,1.1-2.1l1.1-1.1c0,0,1.1,0,1.1-1.1c0,0,0-1.1,1.1-1.1
	s3.2,2.1,3.2,3.2l-1.1,2.1c-1.1,0-2.1,1.1-3.2,2.1c0,0-1.1,1.1-2.1,1.1C525.7,357.7,525.7,357.7,523.5,358.9 M668.8,230.7
	c1.1,2.1-2.1,4.4-1.1,8.6v2.1h-1l-2.1,6.5l-4.4,5.4h-1.1l-1.1,5.4v1.1h-2.1l-1.1,5.4l1.1,1.1l-2.1,2.1v2.1c-1.1,1.1-3.2,2.1-2.1,3.2
	h-2.1l1.1,1.1l-2.1,1.1c-2.1-1.1-18.3,1.1-21.5,3.2l-8.6,1.1l-1.1,1.1l-2.1-1.1v1.1h-4.4h-4.4l-1.1,1.1h-2.1l-2.1,2.1h-2.1l-3.2,3.2
	l1.1,2.1l13,3.2v1.1l1.1-1.1v2.1l5.4-1.1v1.1l8.6,2.1l3.2-1.1c2.1,1.1,6.5-1.1,7.5-2.1l1.1,1.1l-1.1,6.5h1.1v1.1h-1.1l-1.1,4.4
	l-2.1,1.1l1.1,1.1l-2.1,3.2l-1.1,4.4L629,318v2.1l-1.1,1.1l1.1,1.1l-2.1,4.4l-2.1,2.1l2.1,1.1h-2.1l-1.1,3.2c2.1,2.1,1.1,2.1,0,5.4
	h-1.1l2.1,1.1l-2.1,2.1l1.1,1.1h-2.1l1.1,1.1l-1.1,1.1H621l1.1,1.1H621l-3.2,7.5l-1.1,2.1l-2.1,5.4h-1.7l-1.1,4.4h-1.1l1.1,1.1h-1.1
	l-2.1,5.4l-2.1,2.1h-1.2v1.1l-1.1,1.1H603v1.1h-2.1v1.1l-2.1-1.1v-1.7l1.1-1.1l-2.1-2.1l-1.1-4.4h1.1l-1.1-1.1l1.1-1.1h-1.1
	l-1.1-2.1l1.1-4.4l-1.1-1.1v-2.1l1.1-5.4l-1.1-1.1l1.1-3.2c-2.1-2.1,0-2.1,0-4.4h2.1l-1.1-1.1l1.1-1.1h-1.1c1.1-3.2-1.1-5.4-1.1-8.6
	c-2.1-1.1-8.6,3.2-10.8,5.4l-1.1,4.4h-1.1l1.1,1.1l-1.1,1.1h-3.1l-2.1-4.4v-0.8l-2.1-1.1l2.1-7.5l-5.4-1.1l-1.1,1.1l-1.1-1.1
	l-1.1,1.1l-1.1-1.1v2.1l-1.1-1.1v2.1l-4.4,3.2c1.1,2.1,1.1,2.1-1.1,3.2v2.1h1.1l-1.1,5.4H561l1.1,1.1h-2.1c1.1,2.1-1.1,5.4-3.2,7.5
	l-2.1,9.6h-1.1v3.2h-1.1l-1.1,5.4h-2.1v2.1l-2.1,3.2h-1.1l-1.1,3.2l-1.1,2.1h-1.1l-1.1,3.2h-1.1c0,2.1,0,2.1-3.2,3.2v1.1l-6.5-7.5
	l1.1-1.1l-2.1-3.2v-2.1l-1.1-1.1l1.1-1.1l-1.1-1.1l1.1-3.2l-2.1-1.1l2.1-1.1V367l2.1-1.1v-1.1l4.4-1.1l-1.1-1.1h2.1l1.1-2.1v-1.1
	h2.1l2.1-5.4l1.1-2.1h-1.1l1.1-4.4v-3l-2.1-2.1v-1.1l-3.2-2.1l-1.1,1.1l-3.2-1.1v1.1c-4.4,0-4.4,0-5.4,2.1
	c-2.1-1.1-7.5,4.4-10.8,5.4l-1.1,3.2h-1.1v2.1l-2.1,2.1l-2.1,3.2l-1.1-1.1l-2.1,1.1l1.1-2.1c-2.1,0-4.4-2.1-3.2-3.2l-1.1-1.1
	l-3.2-1.1l-1.1,1.1l-5.4,2.1v1.1h-0.4l-1.1,3.2l1.1,3.2H494l1.1,1.1l1.1,1.1l1.1,1.1l-2.1,1.1l1.1,1.1l-2.1,4.4
	c-1.1,1.1-4.4,11.9-4.4,13h-2.1l2.1,1.1v1.1l-2.1,2.1v1.1l-2.1,1.1l1.1,1.1l-3.2,2.1c-2.1-3.2-1.1-4.4-1.1-8.6l-4.4-3.2l1.1-2.1
	l-1.1-1.1l1.1-1.1l2.1,1.1V376h-3.2l1.1-1.1l-1.1-1.1l2.1-1.1l-1.1-4.4h1.1l1.1-3.2l-2.1,1.1l2.1-1.1h1.1V364l2.1-1.1l-1.1-1.1
	c2.1-2.1,3.2-5.4,1.1-7.5c1.1-2.1,2.1-7.5,1.1-9.6c3.2-1.1,3.2-2.1,4.4-4.4l-1.1-1.1l-1.1-3.2l1.1-8.6h-1.1h2.1l-1.1-1.1
	c1.1-2.1,1.1-5.4,0-7.5l1.1-4.4l-1.1-1.1v-12.9c-3.2-3.2-2.1-4.4-1.1-7.5l1.1-2.1v-2.1l-1.1-1.1l-1.1-7.5
	c-11.9-1.1-14,10.8-17.2,17.2c-2.1,4.4-6.5,19.4-7.5,23.7c0,3.2-1.1,8.6-2.1,11.9c-1.1,4.4-1.1,7.5-1.1,10.8c0,2.1-2.1,8.6-1.1,10.8
	c2.1,5.4,0,8.6,0,11.9c0,3.2,0,7.5,0,10.8c0,1.1,1.1,14,1.1,14c0,2.1-5.4,8.6-6.5,10.8s-1.1,4.4-3.2,5.4c-4.4,2.1-2.1,0-4.4,4.4
	c-3.2,5.4-6.5,2.1-9.6,0c0,0-6.5-8.6-7.5-9.6c-2.1-3.2,1.1-4.4,0-6.5c-1.1-2.1-3.2,0-3.2-3.2c0-4.4,5.4-7.5,6.5-12.9
	c1.1-4.4,3.2-7.5,5.4-11.9c2.1-4.4-3.2-4.4,2.1-10.8c2.1-3.2,0-3.2,1.1-6.5c1.1-2.1,2.1-3.2,3.2-5.4c1.1-2.1,4.4-10.8,4.4-10.8
	c1.1-1.1,3.2,1.1,3.2-2.1c0-2.1-1.1-4.4-1.1-7.5c0-3.2,1.1-7.5,1.1-9.6c-1.1-8.6,5.4-17.2-3.2-24.8c-6.5-5.4-19.4,1.1-24.8,4.4
	c-2.1,1.1-15,19.4-15,21.5c0,1.1-2.1,9.6-2.1,9.6c-1.1,2.1-1.1,7.5-2.1,11.9c-1.1,6.5-3.2,7.5-1.1,14c2.1,8.6-4.4,4.4,0,11.9
	c-3.2,1.1-8.6-7.5-13-8.6c-1.1,0-11.9,0-14-2.1c-2.1-1.1-1.1-4.4-1.1-7.5c0-1.1,2.1-2.1,3.2-4.4c2.1-4.4,5.4-4.4,2.1-11.9
	c-1.1-1.1,2.1-10.8,3.2-13c2.1-7.5,3.2-7.5,8.6-14c2.1-3.2,7.5-7.5,5.4-11.9c-1.1-2.1-9.6-7.5-11.9-8.6c-4.4-2.1-11.9-4.4-15,0
	c-2.1,2.1-2.1,3.2-4.4,6.5c-1.1,2.1-3.2,3.2-4.4,5.4c-2.1,3.2-3.2,7.5-6.5,9.6c-3.2,2.1-5.4,5.4-7.5,9.6c-2.1,4.4-4.4,5.4-6.5,10.8
	c-3.2,8.6-7.5,5.4-8.6,9.6c-1.1,6.5-1.1,3.2-3.2,6.5c0,1.1,1.1,4.4-1.1,6.5c-2.1,2.1-5.4-1.1-5.4,4.4c0,2.1,1.1,5.4,0,6.5
	c-1.1,3.2-4.4,1.1-3.2,5.4c0,2.1-1.1,4.4-3.2,5.4c0,0-9.6,2.1-11.9,3.2c-5.4,1.1-27,10.8-29,9.6c-11.9-2.1-17.2-5.4-28,2.1
	c-3.2,2.1-22.6,3.2-27.9,5.4c-4.4,1.1-8.6,3.2-12.9,4.4c-2.1,0-3.2,2.1-6.5,3.2c-2.1,0-4.4,0-6.5,1.1c-8.6,3.2-18.3,7.5-27,9.6
	c-9.6,2.1-18.3,6.5-27.9,9.6c-2.1,1.1-10.8,4.4-11.9,2.1c-2.1-3.2-6.5-11.9-10.8-8.6v2.1l1.1,2.1l2.1,1.1l2.1,3.2v2.1h1.1v1.1
	l1.1,1.1c-1.1,1.1-3.2,3.2-4.4,3.2c-2.1,1.1-1.1-1.1-3.2,1.1h-3.3v1.1l-10.8-3.1v-1.1c-2.1-1.1-8.6-1.1-10.8,0h-2.1
	c-2.1,4.4-2.1,5.4-1.1,8.6h1.1l-1.1,1.1l1.1,1.1l-2.1,2.1L76,437.4l-1.1,1.1l-2.1-1.1v1.1l-8.6,4.4L63,445c-2.1,1.1-11.9,5.4-13,7.5
	l-3.2,1.1v1.1l-4.4,1.1l1.1,2.1l-2.1,1.1l-1.1,2.1h-1.1l-1.1,4.4l-2.1,1.2c0,2.1-4.4,6.5-4.4,9.6h-1.1l-1.1,3.2l1.1,1.1v1.1l14,4.4
	v1.1l1.1-1.1l3.2,2.1v-1.1l6.5,3.2l1.1-1.1l5.4,3.2l0,0l2.1,1.1v-1.1l11.9,1.1l6.5-1.1h4.4l3.2,1.1l7.5-1.1l0,0l1.1-1.1
	c2.1,2.1,10.8,1.1,12.9,2.1l1.1-1.1l1.1,1.1l7.5-1.1v-1.1h1.1l-2.1-1.1l2.1-1.1l-3.2-6.5l-3.2-5.5l1.1-3.2l-2.1-3.2v-1.1
	c-1.1-1.1-2.1-5.4-1.1-6.5l-1.1-1.1l1.1-2.1l-2.1-7.5h1.1h-1.2l-1.1-2.1l-1.1-2.1l1.1-1.1l-2.1-2.1c1.1-2.1-1.1-6.5,4.4-6.5l1.1-1.1
	h1.1l1.1-2.1h2.1h3.2l3.2,7.5v2.1c4.4,2.1,3.2,11.9,7.5,14l1.1,4.4l2.1,6.5h1.1l1.1,4.4l2.1,1.1l-1.1,2.1c4.4,2.1,1.1,3.2,5.4,6.5
	l-1.1,1.1c1.1,1.1,6.5,18.3,7.5,20.5l5.4,8.6c2.1,3.2,2.1,5.4,5.4,8.6l-1.1,1.1l2.1,2.1v4.4l1.1,3.2h2.1l1.1,2.1
	c4.4,1.1,5.4,4.4,10.8,2.1v-2.1h2.1c0-4.4,3.2-6.5,6.5-9.6c5.4-6.5,3.2-3.2,9.6-6.5v-2.1h-2.1V516c-4.4-1.1-8.6,4.4-11.9,4.4v1.1
	l-3.3,1v1.1c-3.2,1.1-2.1,2.1-6.5,3.2c-3.2,1.1-2.1-2.1-4.4-3.2v-1.1H166l-4.4-9.6h-2.1v-3.2l-2.1-1.1l-4.4-9.6l-2.1-1.1
	c1.1-6.5-4.4-9.6-3.2-14l-1.1-1.1v-2.1l-1.1-1.1v-2.1h-1.1c0-2.1-7.5-14-7.5-18.3l-1.1-1.1v-1.1l-3.2-4.4l1.1-1.1l-4.4-8.6l1.1-1.1
	l-2.1-1.1l-2.1-6.5v-2.1c3.2-2.1,9.6-2.1,11.9-5.4h4.4l3.2-1.1v2.1h-1.1c-1.1,3.2-2.1,1.1-3.2,4.4c-1.1,3.2,0,4.4,0,5.4h-2.1
	c-3.2,7.5,4.4,4.4,8.6,7.5l15,6.5l1.1,2.1l1.1-1.1c3.2,3.2,8.6,3.2,10.8,4.4c3.2,2.1,5.4,1.1,7.5,3.2c3.2,3.2,16.2,2.1,21.5,2.1
	c0,0,22.6-3.2,23.7-3.2c2.1-1.1,20.5-4.4,20.5-4.4c0-1.1,8.6-5.4,8.6-5.4c6.5-2.1,3.2,2.1,6.5-5.4c3.2-9.6,2.1-2.1,0-9.6
	c-1.1-3.2,0-6.5-2.1-8.6c1.1-3.2,2.1-7.5,1.1-9.6c1.1-3.2,1.1-7.5,2.1-11.9c2.1-7.5,3.2-4.4,9.6-7.5c5.4-2.1,20.4-6.5,23.7-8.6
	l1.1,2.1l-3.2,10.8l-4.4,6.5h2.1h-2.4l1.1,1.1l-2.1,3.2h-1.1l-1.1,3.2h2.1h-2.1h1.1v4.4c-2.1,1.1-3.2,2.1-2.1,3.2l-1.1,1.1l-1.1,6.5
	h-2.1l-1.1,3.2l1.1,1.1l-2.1,2.1l-1.1,2.1h2.1h-2.1l-1.1,2.1l1.1,1.1c-3.2,3.2-1.1,7.5-4.4,8.6l1.1,1.1h-2.1v2.1l-3.2,3.2l-1.1-1.1
	l-2.1,2.1l-1.1-1.1l-1.1,2.1l2.1,2.1c7.5,0,2.1,4.4,10.8,3.2c3.2,0,9.6,0,13-1.1c5.4-2.1,9.6-3.2,10.8-8.6c1.1-4.4-1.1-9.6,2.1-9.6
	c5.4,0-1.1-4.4,4.4-8.6c4.4-4.4-4.4,1.1-3.2-6.5c1.1-4.4-1.1-2.1,0-5.4c0-4.4,2.1,1.1,3.2,1.1c1.1,1.1,5.4,1.1,4.4-2.1
	c0-1.1-1.1-4.4-1.1-5.4c1.1-4.4,2.1-8.6,3.2-12.9c0-1.1,2.1-3.2,2.1-5.4c-1.1-2.1-3.2-3.2-2.1-5.4c1.1-4.4-1.1-3.2-1.1-5.4
	c0-1.1,3.2-2.1,5.4-2.1c2.1,1.1,3.2,3.2,4.4-1.1c0-1.1,2.1-5.4,1.1-5.4c-1.1-2.1-4.4,0-3.2-2.1c1.1-2.1,2.1-3.2,5.4-3.2
	c2.1,0,5.4-2.1,7.5-2.1c2.1,0,3.2,2.1,5.4,0c6.5-3.2,1.1,2.1,4.4,5.4c2.1,2.1-1.1,6.5,0,9.6c0,2.1,0,9.6,1.1,10.8
	c3.2,3.2,0,4.4,0,10.8c0,0,3.2,10.8,3.2,11.9c2.1,5.4,0,4.4,4.4,8.6c4.4,6.5-1.1,4.4,4.4,9.6c2.1,2.1,5.4,6.5,7.5,9.6
	c3.2,3.2,5.4,8.6,9.6,7.5c2.1-1.1,9.6-3.2,10.8-3.2c1.1-1.1,20.4-5.4,14-13c-7.5-8.6-2.1,3.2-7.5-4.4c-1.1-2.1-7.5,0-9.6,0
	c-8.6,0-5.4-3.2-8.6-7.5c-1.1-1.1-1.1-4.4-1.1-6.5c0-3.2,1.1-1.1,2.1-2.1c4.4-2.1-2.1-7.5-2.1-8.6c-1.1-4.4,0-6.5,1.1-10.8
	c1.1,0,8.6,5.4,10.8,6.5c4.4,1.1,8.6,1.1,12.9,0l4.4,5.4l2.1,1.1l6.5,10.8l1.1-1.1c1.1,3.2,6.5,6.5,9.6,7.5l1.1,2.1
	c2.1,0,7.5,2.1,8.6,2.1c2.1-1.1,6.5-1.1,8.6,0l2.1-2.1l2.1,1.1l7.5-2.1l11.9-12.9c0-2.1,2.1-5.4,4.4-6.5l1.1,1.1
	c1.1,6.5,9.6,5.4,14,4.4c2.1,0,4.4-1.1,6.5-2.1c4.4-3.2,2.1,2.1,5.4-4.4c3.2-2.1,3.2-4.4,4.4-8.6l1.1-1.1l1.1-4.4l-1.1-1.1l1.1-2.1
	l-1.1-2.1c1.1-1.1,2.1-5.4,4.4-7.5c1.1-2.1,0-2.1-1.1-4.4c0-1.1,1.1-4.4,1.1-5.4c6.5-1.1,5.4,4.4,7.5,8.6c0,1.1,1.1,4.4,1.1,5.4
	c0,3.2,2.1,1.1,3.2,4.4c3.2,10.8,9.6,14,20.4,13c10.8-1.1,15-10.8,22.6-17.2c0,0,3.2-10.8,4.4-11.9c1.1-4.4,3.2-6.5,4.4-10.8
	c0-1.1,0-14,5.4-10.8c5.4,3.2,5.4-4.4,6.5,7.5c1.1,10.8-2.1,15,6.5,24.8c5.4,5.4,20.4,2.1,25.8-3.2c4.4-4.4,4.4-7.5,7.5-12.9
	c1.1-1.1,2.1-4.4,2.1-4.4c5.4-6.5,1.1,0,2.1-5.4c3.2,0,7.5,8.6,11.9,10.8c5.4,3.2,11.9,4.4,17.2,5.4c4.4,0,14-3.2,18.3-3.2
	c3.2,0,9.6-5.4,13-6.5c3.2-1.1,6.5-2.1,8.6-4.4c4.4-3.2,5.4-2.1,8.6-4.4c4.4-2.1,9.6-7.5,15-9.6c2.1-1.1,4.4-3.2,7.5-4.4
	c3.2-2.1,4.4-2.1,8.6-4.4c7.5-4.4,8.6-4.4,14-10.8l-1.1-2.1c-2.1,0-22.6,8.6-24.8,9.6c-2.1,1.1-10.8,5.4-13,6.5
	c-7.5,2.1-2.1,5.4-11.9,4.4c-1.1,1.1-4.4,4.4-5.4,4.4c-7.5,2.1-5.4,0-7.5,0c-2.1,0-1.1,2.1-2.1,3.2c-1.1,1.1-2.1,1.1-3.2,2.1
	c-2.1,1.1-5.4,2.1-8.6,3.2c-4.4,1.1-10.8,4.4-15,3.2c-1.1-1.1-1.1-2.1-2.1-2.1s-2.1,1.1-4.4,0c-1.1-1.1-4.4-6.5-4.4-7.5
	c-1.1-3.2-2.1-9.6-1.1-12.9c0-2.1,1.1-7.5,2.1-8.6c1.1-4.4-1.1-3.2,0-6.5c2.1-5.4,4.4-9.6,5.4-15c0-2.1,4.4-10.8,5.4-11.9
	c4.4-3.2,2.1-9.6,7.5-11.9c4.4-1.1,3.2-1.1,8.6-2.1c3.2,0,4.4-2.1,7.5-3.2c1.1,0,6.5-1.1,7.5-1.1c4.4,0,3.2-1.1,7.5-2.1
	c2.1-1.1,15-2.1,15-2.1c4.4-2.1,23.7-3.2,30.1-4.4c4.4,0,10.8-1.1,14-1.1c4.4,1.1,9.6,0,9.6-5.4l-7.5-3.2l-1.1,1.1l-6.5-0.6v1.1
	h-7.5c-3.2-1.1-5.4-2.1-8.6-1.1c-2.1,1.1-6.5,1.1-7.5-1.1v1.1h-6.5l-1.1,1.1l-4.4-1.1l-1.1,1.1l-2.1-1.1c-2.1,1.1-2.1,1.1-5.4,0
	l-4.4,1.1h-2.1l-1.1,1.1l-1.1-2.1l-1.1,1.1l-10.8,1.1l-2.1,1.1h-2.1l-1.1,1.1l-1.1-1.1v1.1v-1.1l-6.5,1.1h-2h-3.2l2.1-7.5h1.1
	l2.1-6.5h1.1l-1.1-1.1l3.2-7.5l1.1-2.1l-1.1-1.1l1.1-1.1l-1.1-1.1l1.1-2.1h1.1l1.1-1.1h-1.1l1.1-4.4L668.8,230.7z M433.1,299.7
	l1.1,1.1l3.2-1.1l-1.1,2.1l3.2,2.1l-1.1,1.1l2.1,1.1l-0.9,2.1l1.1,6.5h-1.1v2.1h3.2l-3.2,2.1c1.1,1.1-2.1,13-3.2,14v2.1l-2.1-1.1
	v2.1l-1.1,1.1v2.1l-2.1,2.1l1.1,2.1l-1.1,1.1l1.1,1.1c-2.1,1.1-3.2,4.4-2.1,5.4h-2.1l1.1,1.1l-2.1,2.1l-3.2,3.2v2.1h-1.1l1.1,1.1
	h-2.1v1.1l-1.1,2.1h-3.2v-6.3l-1.1-1.1l1.1-2.1l-1.1-2.1l1.1-3.2l-1.1-3.2l-1.1-1.1l2.1-1.1l-2.1-3.2l1.1-5.4l-1.1-4.4h-1.1l1.1-1.1
	l-1.1-1.1L417,317l1.1,1.1l1.1-1.1l1.1-3.2v-2.3h1.1v-1.1l3.2-3.2v-1.4l1.1-2.1h1.1l1.1-2.1l3.2-1.1L433.1,299.7L433.1,299.7z
	 M478.2,299.7h2.1v2.1l2.1,3.2l-2.1,1.1l2.1,2.1c-1.1,2.1,1.1,6.5-2.1,9.6h2.1l-2.1,8.6l1.1,1.1h-2.1l1.1,1.1l-2.1,1.1v2.1l1.1,1.1
	h-1.1l1.1,1.1l-2.1,2.1l1.1,1.1l-2.1,1.1h1.1v3.2l-2.1-1.1l-1.1,2.1h2.1l-2.1,4.4v2.1l1.1,1.1h-2.4l-1.1,2.1l-1.1-2.1v-6.5l-1.1-1.1
	l2.1-8.6l-1.1-1.1l2.1-10.8h-1l1.1-1.1l1.1-10.8l0,0v-2l2.1-2.1h-2.1h2.1l1.1-4.4h1.1L478.2,299.7z M348,335.2
	c2.1-3.2,0-5.4,3.2-5.4v1.1H350l1.1,1.1l-1.1,4.4l1.1,1.1l-3.2,12.9h1.1l-2.1,6.5l-7.5,2.1l-3.2,2.1h-4.4l1.1-5.4l4.4,1.1h1.1
	l-1.1-5.4l2.1-4.4l1.1,1.1v-1.1h2.1l-1.1-1.1l1.1-1.1h-2.1l-1.1-1.1h2.1l-1.1-1.1l2.1-2.1l3.2-2.1l-1.1-2.1L348,335.2l-1.1-1.1
	L348,335.2z M368.5,380.4l1.1-1.1l-1.1-1.1c1.1-2.1,1.1-2.1,0-3.2v-3.2h1.1v-1.1l1.1-1.1h3.2l2.1,2.1l1.1-1.1l17.2,4.4l1.1-1.1h2.1
	l2.1,2.1v-0.9h2.1v3.2l-1.1-1.1h1.1l1.1,6.5h-1.2l1.1,1.1h-1.1v1.1l-2,2.2l-1.1,3.2c-2.1,1.1-5.4,2.1-7.5,2.1
	c-3.2,1.1-4.4,0-6.5,1.1l-2.1-1.1v1.1h-3.2v2.1l-4.4-1.1l-1.1,1.1c-4.4-4.4-3.2-7.5-2.1-13h-1.1v-2L368.5,380.4z M244.7,407.3
	c2.1,1.1,2.1,2.1,1.1,4.4l1.1,1.1c-1.1,3.2-1.1,5.4-1.1,7.5c1.1,6.5,0,3.2-1.1,8.6l-2.1,1.1c-2.1,0-6.5,1.1-6.5,3.2l-2.1,1.1
	c-2.1-1.1-11.9,4.4-14,6.5l-1.1-1.1c-1.1,2.1-18.3,6.5-19.4,5.4c-4.4-1.1-5.4,0-8.6-1.1s-7.5-3.2-9.6-3.2l-5.4-5.4
	c1.1-3.2,7.5-6.5,9.6-6.5l4.4-2.1l14-7.5h2.1c1.1-2.1,14-6.5,15-5.4l2.1-1.1v-1.1h2.1l1.1-1.1l8.6-3.2l1.1,1.1
	c2.1-2.1,7.5-4.4,9.6-3.2L244.7,407.3z M312.5,417v3.2h-1.1V419l-2.1-1.1l2.1-2.1v-2.1l2.1-1.1C311.4,414.9,311.4,415.9,312.5,417z
	 M86.5,454.6L86.5,454.6l2.1,5.4l-1.1,3.2l1.1,1.1v1.1l1.1,1.1v2.1l2.1,1.1l-1.1,4.4l-9.6,1.2l-1.1,1.1v-2.1l-1.1,1.1l-4.4-1.1
	l-4.4,1.1l-1.1-1.1h-1h-3.2v-4.4l3.2-7.5h2.1v-1.1h1.1l1.1-2.1l8.6-4.4v-1.1l3.2-1.1v2.1l1.1-2.1L86.5,454.6z"/>
</svg>
