<?xml version="1.0" encoding="utf-8"?>
<!-- Generator: Adobe Illustrator 17.1.0, SVG Export Plug-In . SVG Version: 6.00 Build 0)  -->
<!DOCTYPE svg PUBLIC "-//W3C//DTD SVG 1.1//EN" "http://www.w3.org/Graphics/SVG/1.1/DTD/svg11.dtd">
<svg version="1.1" id="Layer_1" xmlns="http://www.w3.org/2000/svg" xmlns:xlink="http://www.w3.org/1999/xlink" x="0px" y="0px"
	 viewBox="51.5 50 30 30.2" enable-background="new 51.5 50 30 30.2" xml:space="preserve">
<path id="magnifier-icon" d="M81.5,76.3l-8-8c1.2-1.8,1.8-4,1.8-6.4C75.4,55.3,70,50,63.4,50c-6.6,0-11.9,5.3-11.9,11.9
	s5.3,11.9,11.9,11.9c2.2,0,4.3-0.6,6.1-1.7l8.1,8.1L81.5,76.3z M56,61.9c0-4.1,3.4-7.5,7.5-7.5s7.5,3.4,7.5,7.5s-3.4,7.5-7.5,7.5
	C59.3,69.4,56,66,56,61.9z"/>
</svg>
