<?xml version="1.0" encoding="utf-8"?>
<!-- Generator: Adobe Illustrator 17.1.0, SVG Export Plug-In . SVG Version: 6.00 Build 0)  -->
<!DOCTYPE svg PUBLIC "-//W3C//DTD SVG 1.1//EN" "http://www.w3.org/Graphics/SVG/1.1/DTD/svg11.dtd">
<svg version="1.1" id="Layer_1" xmlns="http://www.w3.org/2000/svg" xmlns:xlink="http://www.w3.org/1999/xlink" x="0px" y="0px"
	 viewBox="236 241 40 30" enable-background="new 236 241 40 30" xml:space="preserve">
<path id="shopping-cart-2-icon" fill="#FFFFFF" d="M261.9,268.1c0,1.4-1.2,2.6-2.6,2.6s-2.6-1.2-2.6-2.6c0-1.4,1.2-2.6,2.6-2.6
	S261.9,266.6,261.9,268.1z M253.2,268.1c0,1.4-1.2,2.6-2.6,2.6c-1.4,0-2.6-1.2-2.6-2.6c0-1.4,1.2-2.6,2.6-2.6
	C252.1,265.4,253.2,266.6,253.2,268.1z M269,241.3l-5.8,18.3h-16.6L242,249h17.7l-2.4,8.3h3.9l3.6-12.2H236l8.1,18.5h0h22l5.8-18.3
	h2.9l1.2-3.9L269,241.3L269,241.3z"/>
</svg>
